<?xml version="1.0" encoding="utf-8"?>
<!-- Generator: Adobe Illustrator 27.5.0, SVG Export Plug-In . SVG Version: 6.00 Build 0)  -->
<svg version="1.1" id="图层_1" xmlns="http://www.w3.org/2000/svg" xmlns:xlink="http://www.w3.org/1999/xlink" x="0px" y="0px"
	 viewBox="0 0 40 40" style="enable-background:new 0 0 40 40;" xml:space="preserve">
<style type="text/css">
	.st0{fill:none;stroke:#DEDEDE;stroke-width:4.660974e-02;stroke-miterlimit:10;}
	.st1{fill:none;stroke:#FFFFFF;stroke-width:4.660974e-02;stroke-miterlimit:10;}
	.st2{fill:#C7C7C7;}
	.st3{fill:#C4C4C4;}
	.st4{fill:#FA3D12;}
	.st5{fill:#0A42D1;}
	.st6{fill:#A6A6A6;}
	.st7{fill:#DEDEDE;}
	.st8{fill:#FFFFFF;}
	.st9{fill:#ABABAB;}
</style>
<g>
	<path class="st0" d="M22.1,17.3c3.4,0.3,5.4,4.3,3.4,7.1c-2,2.8-6.1,2.5-7.7-0.4C16.1,21.1,18.5,17,22.1,17.3z"/>
	<path class="st1" d="M22.1,17.3c-3.6-0.3-6,3.7-4.3,6.7c1.6,3,5.8,3.3,7.7,0.4C27.5,21.6,25.5,17.7,22.1,17.3"/>
	<path class="st2" d="M19.4,13.2c0.3-0.3,0.5-0.5,0.4-0.6c-0.1-0.2-1-0.1-1.7,0.1c-0.2,0.1-0.4,0.2-0.8,0.4
		c-0.3,0.2-0.7,0.4-1.2,0.7c-0.5,0.3-1,0.7-1.4,1.3c-0.1,0.1-0.1,0.2-0.1,0.3c0.1,0.2,1.2-0.1,1.6-0.3c1-0.3,1.5-0.7,2.4-1.3
		C18.8,13.7,19.1,13.5,19.4,13.2z"/>
	<g>
		<path class="st3" d="M30.5,8.2c0,0-0.3,0.2-0.5,0.5c-1.2,1.4-1.6,4.2-1.7,4.5c-0.3,1.7-0.7,3.6-0.9,5.3c0,0.1,0,0.2,0,0.3
			c0,0,0,0.1,0,0.1c1.4,0.9,2.4,2.5,2.6,4.1c0,0,0.1,0,0.1,0.1c0.6,0.2,1.2,0.5,1.9,0.5c0.1,0,0.3,0,0.4,0c1.5,0,2.7-0.4,3.7-1.5
			c1.1-1,1.1-2.4,1.4-3.8c-0.7-0.1-1.5-0.1-2.2-0.2c-0.1,0-0.2,0-0.4,0c0,0.2-0.1,0.6-0.2,0.9c-0.1,0.5-0.2,0.8-0.3,1
			C34.4,20.3,34,20.8,33,21c-0.2,0-0.4,0-0.6,0c-1.3,0-2.6-1.1-2.4-2.5c0.2-1.4,0.4-2.8,0.7-4.1c0.3-1.3,0.3-2.7,1-3.8
			c0-0.1,0.2-0.2,0.4-0.4c0.3-0.3,0.5-0.3,0.6-0.3c0.1,0,0.2,0,0.2,0C33,9.6,33,9.4,33,9.1c0-0.7,0.1-1.3,0-1.9c-0.1,0-0.2,0-0.3,0
			C32.4,7.3,31.4,7.5,30.5,8.2z"/>
		<path class="st4" d="M32.9,9.9C32.9,9.9,32.9,9.9,32.9,9.9c0.2,0,0.4,0.1,0.6,0c0.4,0,0.8-0.1,1.1-0.3c0.1-0.1,0.2-0.2,0.3-0.4
			C35,9,35.1,8.7,35.1,8.3c-0.1-0.4-0.3-0.6-0.4-0.7C34,7,33.1,7.2,32.9,7.2"/>
		<path class="st5" d="M35,18c0,0.1,0,0.2,0,0.2c0.5,0,0.9,0.1,1.4,0.1c0.4,0,0.8,0.1,1.2,0.1c0-0.1,0.2-1-0.3-1.6
			c-0.1-0.1-0.3-0.3-0.7-0.4c-0.5-0.1-0.8,0.2-0.9,0.3C35.2,17.1,35,17.8,35,18z"/>
	</g>
	<g>
		<path class="st3" d="M5,20.7c0,0,0.3-0.1,0.6-0.1c1.8-0.2,4.4,1.1,4.7,1.3c1.5,0.7,3.3,1.5,4.8,2.3c0.1,0.1,0.2,0.1,0.3,0.2
			c0,0,0.1,0.1,0.1,0c-0.1,1.7,0.7,3.5,1.9,4.5c0,0.1,0,0.1,0,0.2c-0.2,0.6-0.3,1.3-0.7,1.9c-0.1,0.1-0.1,0.2-0.2,0.3
			c-0.9,1.2-1.9,1.9-3.4,2.2c-1.5,0.3-2.6-0.5-3.9-1c0.8-1.2,1-1.6,1.1-1.8c0,0,0-0.1,0.1-0.2c0.1-0.1,0.1-0.2,0.2-0.3
			c0.2,0.1,0.5,0.2,0.9,0.4c0.5,0.2,0.8,0.3,1,0.3c0.2,0,0.8,0,1.6-0.7c0.1-0.1,0.2-0.3,0.3-0.5c0.7-1,0.6-2.7-0.6-3.4
			s-2.5-1.2-3.7-1.8c-1.2-0.5-2.3-1.3-3.7-1.4c-0.1,0-0.3,0-0.5,0.1c-0.4,0.1-0.5,0.2-0.6,0.3C5,23.6,5,23.6,5,23.7
			c-0.2-0.1-0.4-0.3-0.7-0.4c-0.6-0.3-1.1-0.7-1.5-1.1c0-0.1,0.1-0.1,0.2-0.2C3.2,21.7,3.9,21,5,20.7z"/>
		<path class="st4" d="M5,23.6C5,23.6,5,23.6,5,23.6c-0.1,0.2-0.2,0.3-0.3,0.5c-0.3,0.3-0.5,0.6-0.9,0.7c-0.1,0-0.3,0.1-0.6,0
			c-0.1,0-0.4-0.1-0.7-0.4c-0.3-0.3-0.3-0.6-0.3-0.8c-0.1-0.9,0.6-1.5,0.7-1.6"/>
		<path class="st5" d="M10.3,30c0.1,0,0.2,0.1,0.2,0.1c-0.2,0.4-0.5,0.8-0.7,1.2c-0.2,0.4-0.4,0.7-0.6,1.1c-0.1,0-1-0.4-1.1-1.2
			c0-0.1-0.1-0.5,0.1-0.8C8.4,30,8.9,29.9,9,29.9C9.6,29.7,10.1,29.9,10.3,30z"/>
	</g>
	<path class="st6" d="M16.4,15.1c0.3,0.6,0.7,1.2,1,1.8c0.3-0.2,0.6-0.5,1-0.7c0.4-0.3,0.8-0.4,1.2-0.6c-0.3-0.6-0.6-1.2-0.9-1.8
		c-0.1-0.1-0.2-0.2-0.3-0.3c-0.4-0.2-0.8,0.1-1.2,0.3c-0.4,0.3-0.8,0.5-0.9,0.9C16.3,14.8,16.3,14.9,16.4,15.1z"/>
	<path class="st7" d="M22.1,17.3c3.4,0.3,5.4,4.3,3.4,7.1c-2,2.8-6.1,2.5-7.7-0.4C16.1,21.1,18.5,17,22.1,17.3 M19.6,15.5
		c-0.2,0.1-1.2,0.5-2.2,1.3c-1.3,1.1-3.1,3.4-2.9,6.3c0.1,2,1,4.2,2.7,5.5c0.6,0.5,1.2,0.9,1.9,1.3c-0.7,1.5,0.3,3.3,1.9,3.5
		c1.6,0.2,3.2-1.3,2.8-3c0.9-0.1,2.5-0.5,3.8-1.9c0.2-0.2,0.4-0.5,0.6-0.7c0.2,0.2,0.5,0.5,1.1,0.7c0.1,0,0.9,0.3,1.8-0.1
		c0.5-0.3,0.8-0.5,1.1-1c0.3-0.5,0.4-1.2,0.3-1.7c-0.1-0.5-0.4-1-0.8-1.3c-0.4-0.4-0.9-0.6-1.5-0.6c0-0.6,0.2-1.3,0-2c0,0,0,0,0-0.1
		c-0.4-3.5-2.5-4.7-3.4-5.5c-1.4-1.1-3.1-1.2-3.9-1.2C21,15,19.8,15.4,19.6,15.5z"/>
	<path class="st8" d="M22.1,17.3c-3.6-0.3-6,3.7-4.3,6.7c1.6,3,5.8,3.3,7.7,0.4C27.5,21.6,25.5,17.7,22.1,17.3"/>
	<g>
		<path class="st9" d="M20,21.3c-0.1,0-0.2-0.1-0.2-0.2c-0.1-0.7,0.1-1.4,0.7-1.7c0.5-0.3,1.2-0.2,1.8,0.3c0.1,0.1,0.1,0.2,0,0.3
			c-0.1,0.1-0.2,0.1-0.3,0c-0.4-0.3-0.9-0.4-1.3-0.2c-0.4,0.2-0.6,0.7-0.5,1.2C20.3,21.1,20.2,21.3,20,21.3
			C20.1,21.3,20.1,21.3,20,21.3z"/>
	</g>
	<path class="st6" d="M22.2,31.9L22.2,31.9c-0.1,0.1-0.3,0.1-0.4,0l-1.5-1.5c-0.1-0.1-0.1-0.3,0-0.4l0,0c0.1-0.1,0.3-0.1,0.4,0
		l1.5,1.5C22.3,31.7,22.3,31.8,22.2,31.9z"/>
	<path class="st6" d="M22.2,30.1L22.2,30.1c0.1,0.1,0.1,0.3,0,0.4l-1.5,1.5c-0.1,0.1-0.3,0.1-0.4,0v0c-0.1-0.1-0.1-0.3,0-0.4
		l1.5-1.5C21.9,30,22.1,30,22.2,30.1z"/>
	<path class="st6" d="M30.9,27.2L30.9,27.2c-0.1,0.1-0.3,0.1-0.4,0l-1.5-1.5c-0.1-0.1-0.1-0.3,0-0.4l0,0c0.1-0.1,0.3-0.1,0.4,0
		l1.5,1.5C31,26.9,31,27.1,30.9,27.2z"/>
	<path class="st6" d="M30.9,25.4L30.9,25.4c0.1,0.1,0.1,0.3,0,0.4l-1.5,1.5c-0.1,0.1-0.3,0.1-0.4,0l0,0c-0.1-0.1-0.1-0.3,0-0.4
		l1.5-1.5C30.7,25.3,30.8,25.3,30.9,25.4z"/>
</g>
</svg>
