<?xml version="1.0" encoding="UTF-8"?>
<svg id="_图层_2" data-name="图层 2" xmlns="http://www.w3.org/2000/svg" viewBox="0 0 37.84418 28.01752">
  <defs>
    <style>
      .cls-1 {
        fill: #fa3d12;
      }

      .cls-2 {
        fill: #fff;
      }

      .cls-3 {
        fill: #a6a6a6;
      }

      .cls-4 {
        fill: #ababab;
      }

      .cls-5 {
        fill: #c7c7c7;
      }

      .cls-6 {
        fill: #dedede;
      }

      .cls-7 {
        fill: #c4c4c4;
      }

      .cls-8 {
        fill: #0a42d1;
      }
    </style>
  </defs>
  <g id="_图层_1-2" data-name="图层 1">
    <g>
      <path class="cls-5" d="m18.40169,6.3683c.2834-.30006.51252-.54265.44688-.68857-.11619-.25827-1.10966-.11109-1.83153.15234-.2356.08598-.43826.18964-.84356.39697-.32286.16515-.73709.37841-1.24703.7064-.53635.34497-1.10443.76917-1.45956,1.40419-.05587.09991-.10455.2016-.06313.27333.14571.25236,1.24987-.13722,1.69078-.29279,1.02893-.36303,1.64598-.75521,2.60034-1.36177.07072-.04495.38064-.24474.70682-.5901Z"/>
      <g>
        <path class="cls-7" d="m30.20965,1.06071c-.0375.03179-.26996.23034-.48952.48948-1.25519,1.48145-1.69847,4.49287-1.7574,4.83188-.30878,1.77642-.74935,3.78403-.99148,5.59773-.00075.10617.0049.24775,0,.33887-.00113-.01054.02259.11559,0,.07531,1.51376.90817,2.58658,2.70944,2.78653,4.40528.05021.0251.10041.05021.15062.07531.67404.23721,1.30138.51508,2.03341.56478.12351.00828.27866.02824.37656.03766,1.58945,0,2.84113-.46915,3.96327-1.57198,1.12177-1.10283,1.1357-2.58632,1.49682-4.00053-.79275-.05618-1.58969-.11769-2.39074-.18469-.12643-.01058-.25274-.02127-.37892-.03208-.04456.24083-.11454.58811-.21893,1.00286-.14303.56828-.21455.85243-.32815,1.05585-.11358.20339-.47085.72146-1.57853.94432-.19355.02748-.41346.01845-.60249,0-1.3654,0-2.73381-1.18567-2.52294-2.63564.21087-1.44998.46354-2.94138.79115-4.3296.32723-1.38861.27715-2.86306,1.05399-4.0668.03612-.05597.17046-.23151.37656-.41417.31401-.2783.53374-.33542.61327-.35256.08786-.01894.16304-.02327.21516-.02368.03015-.26784.0556-.54417.07531-.82863.04893-.70611.05621-1.37213.03552-1.99145-.0708.00468-.19017.01405-.33676.03355-.37996.05053-1.45222.19898-2.37232.97895Z"/>
        <path class="cls-1" d="m32.75469,2.82553v.03766c.17871.01513.40992.02277.6778,0,.43594-.03705.83825-.07123,1.17877-.3518.10842-.08933.25124-.23715.36512-.47663.05642-.11712.19018-.43528.11297-.82843-.08008-.40777-.3383-.64763-.45187-.75312-.67647-.62837-1.70032-.42976-1.84029-.40045"/>
        <path class="cls-8" d="m35.01749,11.47267c-.01821.10078-.02666.1854-.03096.24324.49339.04426.98894.09007,1.48663.13746.4363.04155.87074.08399,1.30334.12728.02349-.08865.26529-1.06042-.33602-1.69027-.07706-.08072-.33818-.35424-.75859-.4073-.48589-.06132-.85099.21393-.97242.30547-.5325.40144-.64887,1.0455-.69199,1.28412Z"/>
      </g>
      <g>
        <path class="cls-7" d="m3.07644,14.35997c.04765-.0121.34423-.08625.68269-.11473,1.93486-.16285,4.64482,1.22324,4.95513,1.37193,1.62603.77914,3.51682,1.58504,5.13454,2.44009.08692.06099.19895.14772.276.1966-.00793-.00704.08104.08547.06134.04369-.13855,1.75984.70616,3.67869,1.97141,4.82544-.00868.05546-.01737.11091-.02605.16637-.19786.68662-.3355,1.3588-.71972,1.98387-.06491.10541-.13866.24335-.1878.32855-.92216,1.2946-2.03046,2.0419-3.57975,2.31605-1.54906.27384-2.76544-.57549-4.12682-1.10185.82426-1.24846,1.10004-1.72001,1.15653-1.86829.00544-.01429.03286-.08861.08008-.1861.06892-.14232.14067-.25265.19371-.32724.222.10343.54547.24792.94384.40352.54585.2132.81877.31981,1.05037.3453.23156.02549.8608.03507,1.68496-.73783.13468-.1417.2549-.32606.34955-.49073.79217-1.11211.62036-2.91456-.68298-3.58405s-2.66467-1.32895-3.98544-1.86753c-1.32086-.53911-2.49274-1.43534-3.92388-1.50098-.06654-.00305-.28746.00453-.55581.06641-.40886.09429-.58286.24013-.64296.29496-.0664.06057-.11354.11929-.14411.1615-.23565-.13084-.47548-.27043-.7186-.4194-.60351-.36982-1.15021-.75029-1.64263-1.12646.04488-.05495.12178-.14674.2227-.25482.26159-.28016,1.0046-1.06739,2.1737-1.36428Z"/>
        <path class="cls-1" d="m3.03732,17.45679l.03067.02185c-.09136.15435-.21929.34709-.39324.55207-.2831.33358-.54435.64142-.97043.75599-.13566.03648-.33893.06705-.60004.02086-.12813-.022-.46487-.09763-.74029-.38862-.28566-.30181-.33121-.65128-.35125-.80498-.11933-.91554.63645-1.63423.74152-1.73124"/>
        <path class="cls-8" d="m8.76754,24.31666c.09265.04364.16647.08585.21608.1159-.2502.42754-.5004.85774-.75054,1.2906-.21929.37947-.43678.75794-.65249,1.13541-.08583-.0323-1.01761-.39915-1.18177-1.25433-.02104-.1096-.09232-.48096.10837-.85417.23195-.43133.66797-.56901.81297-.6148.63592-.20081,1.22801.07807,1.44738.18139Z"/>
      </g>
      <path class="cls-3" d="m15.22773,8.36752c.35563.62887.71125,1.25775,1.06688,1.88662.27527-.24912.62942-.53054,1.06799-.79842.45461-.27767.88139-.46839,1.23836-.60073-.31659-.64557-.67336-1.29016-.99243-1.93523-.07285-.14731-.16551-.24281-.27117-.29903-.3794-.20187-.88956.08426-1.32912.33624-.47312.27123-.88519.50746-.92105.91306-.01793.20284.06438.37849.14053.49748Z"/>
      <path class="cls-6" d="m21.28051,10.79023c3.61293.34983,5.69802,4.57559,3.60747,7.57718-2.09105,3.0011-6.51082,2.68352-8.23715-.46595-1.72682-3.14997.84456-7.47744,4.62967-7.11124m-2.67955-1.93523c-.23309.08286-1.28567.46831-2.38183,1.3894-1.4141,1.18826-3.2637,3.57315-3.07652,6.74851.12703,2.15505,1.04949,4.50066,2.82842,5.90494.58851.5632,1.30455.98598,2.03448,1.33978-.76665,1.55216.29376,3.50476,2.00123,3.75485,1.70747.25009,3.39807-1.41421,2.96091-3.1594.92183-.12625,2.69563-.52091,4.03398-1.97131.23367-.25323.42963-.51216.59446-.76661.18315.194.57735.55593,1.19314.73718.12221.03597.99904.33353,1.86576-.13695.51557-.27986.90361-.56321,1.19886-1.08373.29475-.52102.43319-1.25294.29277-1.83896-.14092-.58553-.40888-1.02022-.85498-1.42761-.4456-.40789-.99144-.59942-1.57548-.65748.06212-.51166.104-1.23346,0-2.0841-.02658-.21738-.27745-2.12041-1.36521-3.72185-1.9742-2.90649-6.31639-4.24729-9.74998-3.02666Z"/>
      <path class="cls-2" d="m21.28051,10.79023c-3.78512-.36621-6.3565,3.96127-4.62967,7.11124,1.72633,3.14947,6.1461,3.46705,8.23715.46595,2.09055-3.0016.00546-7.22735-3.60747-7.57718"/>
      <path class="cls-4" d="m19.08608,15.00508c-.10801,0-.20469-.07584-.22703-.18574-.15298-.75173.15012-1.47939.75425-1.81065.58436-.32046,1.32766-.21443,1.89337.27006.0973.08335.10864.22974.02534.32705-.0834.09735-.22984.1086-.32705.02534-.41781-.35782-.95502-.44252-1.36866-.21569-.42483.23299-.6349.75997-.52272,1.31133.02559.12556-.05548.24801-.18099.27355-.0156.0032-.03121.00475-.04652.00475Z"/>
      <rect class="cls-3" x="20.11349" y="23.99851" width=".53707" height="2.74189" rx=".26853" ry=".26853" transform="translate(-11.96915 21.84274) rotate(-44.99986)"/>
      <rect class="cls-3" x="20.11349" y="24.00723" width=".53707" height="2.74189" rx=".26854" ry=".26854" transform="translate(16.8493 57.73554) rotate(-135.00014)"/>
      <rect class="cls-3" x="29.44305" y="18.94184" width=".53707" height="2.74189" rx=".26854" ry=".26854" transform="translate(-5.66094 26.959) rotate(-45.00041)"/>
      <rect class="cls-3" x="29.44305" y="18.95056" width=".53707" height="2.74189" rx=".26854" ry=".26854" transform="translate(36.3513 55.70026) rotate(-134.99986)"/>
    </g>
  </g>
</svg>